<?xml version="1.0" encoding="UTF-8" standalone="no"?>
<!DOCTYPE svg PUBLIC "-//W3C//DTD SVG 1.1//EN"
 "http://www.w3.org/Graphics/SVG/1.1/DTD/svg11.dtd">
<!-- Generated by graphviz version 2.43.0 (0)
 -->
<!-- Title: G Pages: 1 -->
<svg width="1151pt" height="476pt"
 viewBox="0.00 0.00 1151.49 476.00" xmlns="http://www.w3.org/2000/svg" xmlns:xlink="http://www.w3.org/1999/xlink">
<g id="graph0" class="graph" transform="scale(1 1) rotate(0) translate(4 472)">
<title>G</title>
<polygon fill="white" stroke="transparent" points="-4,4 -4,-472 1147.49,-472 1147.49,4 -4,4"/>
<!-- :app -->
<g id="node1" class="node">
<title>:app</title>
<ellipse fill="none" stroke="black" cx="467.49" cy="-450" rx="30.59" ry="18"/>
<text text-anchor="middle" x="467.49" y="-446.3" font-family="Times,serif" font-size="14.00">:app</text>
</g>
<!-- :modules:common -->
<g id="node2" class="node">
<title>:modules:common</title>
<ellipse fill="none" stroke="black" cx="781.49" cy="-18" rx="94.78" ry="18"/>
<text text-anchor="middle" x="781.49" y="-14.3" font-family="Times,serif" font-size="14.00">:modules:common</text>
</g>
<!-- :app&#45;&gt;:modules:common -->
<g id="edge1" class="edge">
<title>:app&#45;&gt;:modules:common</title>
<path fill="none" stroke="black" d="M498.06,-448.86C603.42,-447.95 950.47,-441.51 1050.49,-396 1102.56,-372.3 1143.49,-364.21 1143.49,-307 1143.49,-307 1143.49,-307 1143.49,-161 1143.49,-114.03 1125.61,-98 1086.49,-72 1052.76,-49.58 953.01,-35.19 876.68,-27.14"/>
<polygon fill="black" stroke="black" points="876.86,-23.64 866.55,-26.1 876.14,-30.6 876.86,-23.64"/>
</g>
<!-- :modules:designsystem -->
<g id="node3" class="node">
<title>:modules:designsystem</title>
<ellipse fill="none" stroke="black" cx="467.49" cy="-234" rx="119.68" ry="18"/>
<text text-anchor="middle" x="467.49" y="-230.3" font-family="Times,serif" font-size="14.00">:modules:designsystem</text>
</g>
<!-- :app&#45;&gt;:modules:designsystem -->
<g id="edge2" class="edge">
<title>:app&#45;&gt;:modules:designsystem</title>
<path fill="none" stroke="black" d="M467.49,-431.85C467.49,-394.83 467.49,-307.18 467.49,-262.39"/>
<polygon fill="black" stroke="black" points="470.99,-262.23 467.49,-252.23 463.99,-262.23 470.99,-262.23"/>
</g>
<!-- :modules:database -->
<g id="node4" class="node">
<title>:modules:database</title>
<ellipse fill="none" stroke="black" cx="97.49" cy="-162" rx="97.48" ry="18"/>
<text text-anchor="middle" x="97.49" y="-158.3" font-family="Times,serif" font-size="14.00">:modules:database</text>
</g>
<!-- :app&#45;&gt;:modules:database -->
<g id="edge3" class="edge">
<title>:app&#45;&gt;:modules:database</title>
<path fill="none" stroke="black" d="M437.45,-445.85C399.33,-440.67 332.88,-427.56 285.49,-396 202.35,-340.62 138.09,-237.07 111.21,-188.89"/>
<polygon fill="black" stroke="black" points="114.23,-187.1 106.34,-180.02 108.09,-190.47 114.23,-187.1"/>
</g>
<!-- :modules:datastore -->
<g id="node5" class="node">
<title>:modules:datastore</title>
<ellipse fill="none" stroke="black" cx="313.49" cy="-162" rx="100.18" ry="18"/>
<text text-anchor="middle" x="313.49" y="-158.3" font-family="Times,serif" font-size="14.00">:modules:datastore</text>
</g>
<!-- :app&#45;&gt;:modules:datastore -->
<g id="edge4" class="edge">
<title>:app&#45;&gt;:modules:datastore</title>
<path fill="none" stroke="black" d="M436.92,-448.97C398.96,-447.08 335.54,-437.45 305.49,-396 260.45,-333.87 286.51,-235.97 303.06,-189.36"/>
<polygon fill="black" stroke="black" points="306.35,-190.56 306.52,-179.96 299.78,-188.14 306.35,-190.56"/>
</g>
<!-- :modules:domain -->
<g id="node6" class="node">
<title>:modules:domain</title>
<ellipse fill="none" stroke="black" cx="581.49" cy="-90" rx="89.88" ry="18"/>
<text text-anchor="middle" x="581.49" y="-86.3" font-family="Times,serif" font-size="14.00">:modules:domain</text>
</g>
<!-- :app&#45;&gt;:modules:domain -->
<g id="edge5" class="edge">
<title>:app&#45;&gt;:modules:domain</title>
<path fill="none" stroke="black" d="M449.33,-435.44C402.66,-398.93 285.8,-295.9 338.49,-216 360.85,-182.09 386.05,-197.94 422.49,-180 465.63,-158.76 513.59,-131.37 545.44,-112.61"/>
<polygon fill="black" stroke="black" points="547.56,-115.43 554.39,-107.33 544,-109.4 547.56,-115.43"/>
</g>
<!-- :modules:navigator -->
<g id="node7" class="node">
<title>:modules:navigator</title>
<ellipse fill="none" stroke="black" cx="803.49" cy="-306" rx="100.18" ry="18"/>
<text text-anchor="middle" x="803.49" y="-302.3" font-family="Times,serif" font-size="14.00">:modules:navigator</text>
</g>
<!-- :app&#45;&gt;:modules:navigator -->
<g id="edge6" class="edge">
<title>:app&#45;&gt;:modules:navigator</title>
<path fill="none" stroke="black" d="M491.66,-438.79C547.1,-415.36 684.24,-357.4 756.78,-326.74"/>
<polygon fill="black" stroke="black" points="758.29,-329.9 766.14,-322.78 755.57,-323.45 758.29,-329.9"/>
</g>
<!-- :modules:navigator&#45;quicktile -->
<g id="node8" class="node">
<title>:modules:navigator&#45;quicktile</title>
<ellipse fill="none" stroke="black" cx="898.49" cy="-378" rx="142.97" ry="18"/>
<text text-anchor="middle" x="898.49" y="-374.3" font-family="Times,serif" font-size="14.00">:modules:navigator&#45;quicktile</text>
</g>
<!-- :app&#45;&gt;:modules:navigator&#45;quicktile -->
<g id="edge7" class="edge">
<title>:app&#45;&gt;:modules:navigator&#45;quicktile</title>
<path fill="none" stroke="red" stroke-width="2" d="M496.78,-444.24C559.06,-434.13 706.95,-410.11 804.85,-394.21"/>
<polygon fill="red" stroke="red" stroke-width="2" points="805.45,-397.66 814.76,-392.6 804.32,-390.75 805.45,-397.66"/>
</g>
<!-- :modules:database&#45;&gt;:modules:common -->
<g id="edge8" class="edge">
<title>:modules:database&#45;&gt;:modules:common</title>
<path fill="none" stroke="black" d="M110.58,-144.04C127.9,-123.01 160.6,-87.99 197.49,-72 281.02,-35.81 532.84,-24.32 677.06,-20.68"/>
<polygon fill="black" stroke="black" points="677.34,-24.17 687.25,-20.43 677.17,-17.17 677.34,-24.17"/>
</g>
<!-- :modules:database&#45;&gt;:modules:domain -->
<g id="edge9" class="edge">
<title>:modules:database&#45;&gt;:modules:domain</title>
<path fill="none" stroke="black" d="M167.95,-149.51C180.13,-147.61 192.67,-145.7 204.49,-144 327.8,-126.22 359.29,-126.55 482.49,-108 490.4,-106.81 498.65,-105.5 506.87,-104.15"/>
<polygon fill="black" stroke="black" points="507.56,-107.59 516.85,-102.5 506.41,-100.68 507.56,-107.59"/>
</g>
<!-- :modules:datastore&#45;&gt;:modules:common -->
<g id="edge10" class="edge">
<title>:modules:datastore&#45;&gt;:modules:common</title>
<path fill="none" stroke="black" d="M259.55,-146.83C239.98,-138.8 219.89,-126.52 208.49,-108 200.11,-94.37 197.71,-83.82 208.49,-72 239.41,-38.09 521.05,-25.56 677.63,-21.18"/>
<polygon fill="black" stroke="black" points="677.86,-24.68 687.76,-20.9 677.67,-17.68 677.86,-24.68"/>
</g>
<!-- :modules:datastore&#45;&gt;:modules:domain -->
<g id="edge11" class="edge">
<title>:modules:datastore&#45;&gt;:modules:domain</title>
<path fill="none" stroke="black" d="M367.73,-146.83C411.61,-135.37 473.45,-119.22 519.33,-107.24"/>
<polygon fill="black" stroke="black" points="520.37,-110.58 529.16,-104.67 518.6,-103.81 520.37,-110.58"/>
</g>
<!-- :modules:datastore&#45;proto -->
<g id="node9" class="node">
<title>:modules:datastore&#45;proto</title>
<ellipse fill="none" stroke="black" cx="345.49" cy="-90" rx="128.08" ry="18"/>
<text text-anchor="middle" x="345.49" y="-86.3" font-family="Times,serif" font-size="14.00">:modules:datastore&#45;proto</text>
</g>
<!-- :modules:datastore&#45;&gt;:modules:datastore&#45;proto -->
<g id="edge12" class="edge">
<title>:modules:datastore&#45;&gt;:modules:datastore&#45;proto</title>
<path fill="none" stroke="black" d="M321.4,-143.7C325.04,-135.73 329.45,-126.1 333.48,-117.26"/>
<polygon fill="black" stroke="black" points="336.7,-118.65 337.67,-108.1 330.33,-115.74 336.7,-118.65"/>
</g>
<!-- :modules:domain&#45;&gt;:modules:common -->
<g id="edge13" class="edge">
<title>:modules:domain&#45;&gt;:modules:common</title>
<path fill="none" stroke="red" stroke-width="2" d="M624.4,-73.98C654.87,-63.32 695.99,-48.92 728.52,-37.54"/>
<polygon fill="red" stroke="red" stroke-width="2" points="730.03,-40.72 738.31,-34.11 727.72,-34.11 730.03,-40.72"/>
</g>
<!-- :modules:navigator&#45;&gt;:modules:common -->
<g id="edge14" class="edge">
<title>:modules:navigator&#45;&gt;:modules:common</title>
<path fill="none" stroke="black" d="M893.27,-297.77C927.33,-290.74 964.01,-277.33 989.49,-252 1024.18,-217.53 1035.45,-186.05 1010.49,-144 975.78,-85.51 903.01,-52.63 848.76,-35.44"/>
<polygon fill="black" stroke="black" points="849.45,-31.99 838.86,-32.41 847.4,-38.68 849.45,-31.99"/>
</g>
<!-- :modules:navigator&#45;&gt;:modules:designsystem -->
<g id="edge15" class="edge">
<title>:modules:navigator&#45;&gt;:modules:designsystem</title>
<path fill="none" stroke="black" d="M740.69,-291.92C685.2,-280.36 604.11,-263.46 544.68,-251.08"/>
<polygon fill="black" stroke="black" points="545.1,-247.59 534.6,-248.98 543.67,-254.45 545.1,-247.59"/>
</g>
<!-- :modules:navigator&#45;&gt;:modules:domain -->
<g id="edge16" class="edge">
<title>:modules:navigator&#45;&gt;:modules:domain</title>
<path fill="none" stroke="black" d="M721.76,-295.41C690.98,-288.03 657.81,-274.99 634.49,-252 597.84,-215.86 586.53,-153.95 583.04,-118.35"/>
<polygon fill="black" stroke="black" points="586.52,-117.88 582.19,-108.21 579.54,-118.47 586.52,-117.88"/>
</g>
<!-- :modules:navigator&#45;domain -->
<g id="node10" class="node">
<title>:modules:navigator&#45;domain</title>
<ellipse fill="none" stroke="black" cx="864.49" cy="-162" rx="137.28" ry="18"/>
<text text-anchor="middle" x="864.49" y="-158.3" font-family="Times,serif" font-size="14.00">:modules:navigator&#45;domain</text>
</g>
<!-- :modules:navigator&#45;&gt;:modules:navigator&#45;domain -->
<g id="edge17" class="edge">
<title>:modules:navigator&#45;&gt;:modules:navigator&#45;domain</title>
<path fill="none" stroke="black" d="M893.23,-297.98C923.33,-290.83 953.93,-277.28 972.49,-252 981.96,-239.1 980.95,-229.58 972.49,-216 963.26,-201.18 948.54,-190.39 932.9,-182.58"/>
<polygon fill="black" stroke="black" points="934.17,-179.31 923.62,-178.31 931.25,-185.67 934.17,-179.31"/>
</g>
<!-- :modules:navigator&#45;notifications -->
<g id="node11" class="node">
<title>:modules:navigator&#45;notifications</title>
<ellipse fill="none" stroke="black" cx="803.49" cy="-234" rx="159.77" ry="18"/>
<text text-anchor="middle" x="803.49" y="-230.3" font-family="Times,serif" font-size="14.00">:modules:navigator&#45;notifications</text>
</g>
<!-- :modules:navigator&#45;&gt;:modules:navigator&#45;notifications -->
<g id="edge18" class="edge">
<title>:modules:navigator&#45;&gt;:modules:navigator&#45;notifications</title>
<path fill="none" stroke="red" stroke-width="2" d="M803.49,-287.7C803.49,-279.98 803.49,-270.71 803.49,-262.11"/>
<polygon fill="red" stroke="red" stroke-width="2" points="806.99,-262.1 803.49,-252.1 799.99,-262.1 806.99,-262.1"/>
</g>
<!-- :modules:navigator&#45;quicktile&#45;&gt;:modules:common -->
<g id="edge19" class="edge">
<title>:modules:navigator&#45;quicktile&#45;&gt;:modules:common</title>
<path fill="none" stroke="black" d="M962.85,-361.84C1023.62,-343.24 1105.49,-305.16 1105.49,-235 1105.49,-235 1105.49,-235 1105.49,-161 1105.49,-63.08 979.81,-32.05 885,-22.57"/>
<polygon fill="black" stroke="black" points="885.05,-19.06 874.77,-21.62 884.4,-26.03 885.05,-19.06"/>
</g>
<!-- :modules:navigator&#45;quicktile&#45;&gt;:modules:navigator -->
<g id="edge20" class="edge">
<title>:modules:navigator&#45;quicktile&#45;&gt;:modules:navigator</title>
<path fill="none" stroke="red" stroke-width="2" d="M875.49,-360.05C863.03,-350.87 847.48,-339.41 834.01,-329.49"/>
<polygon fill="red" stroke="red" stroke-width="2" points="836.08,-326.66 825.95,-323.55 831.92,-332.3 836.08,-326.66"/>
</g>
<!-- :modules:navigator&#45;quicktile&#45;&gt;:modules:navigator&#45;domain -->
<g id="edge21" class="edge">
<title>:modules:navigator&#45;quicktile&#45;&gt;:modules:navigator&#45;domain</title>
<path fill="none" stroke="black" d="M920.81,-360.09C957.43,-330.24 1022.99,-266.6 989.49,-216 979.06,-200.25 962.91,-189.16 945.64,-181.37"/>
<polygon fill="black" stroke="black" points="946.53,-177.95 935.96,-177.37 943.86,-184.42 946.53,-177.95"/>
</g>
<!-- :modules:navigator&#45;domain&#45;&gt;:modules:common -->
<g id="edge23" class="edge">
<title>:modules:navigator&#45;domain&#45;&gt;:modules:common</title>
<path fill="none" stroke="black" d="M854.48,-143.87C840.08,-119.24 813.43,-73.64 796.62,-44.88"/>
<polygon fill="black" stroke="black" points="799.61,-43.06 791.54,-36.19 793.56,-46.59 799.61,-43.06"/>
</g>
<!-- :modules:navigator&#45;domain&#45;&gt;:modules:domain -->
<g id="edge22" class="edge">
<title>:modules:navigator&#45;domain&#45;&gt;:modules:domain</title>
<path fill="none" stroke="red" stroke-width="2" d="M803.08,-145.81C756.49,-134.29 692.62,-118.49 645.42,-106.81"/>
<polygon fill="red" stroke="red" stroke-width="2" points="646.16,-103.39 635.61,-104.39 644.48,-110.19 646.16,-103.39"/>
</g>
<!-- :modules:navigator&#45;notifications&#45;&gt;:modules:common -->
<g id="edge26" class="edge">
<title>:modules:navigator&#45;notifications&#45;&gt;:modules:common</title>
<path fill="none" stroke="black" d="M759.8,-216.57C743.85,-208.2 727.52,-196.27 718.49,-180 693.12,-134.27 731.46,-76.21 758.55,-43.79"/>
<polygon fill="black" stroke="black" points="761.28,-45.98 765.15,-36.12 755.97,-41.42 761.28,-45.98"/>
</g>
<!-- :modules:navigator&#45;notifications&#45;&gt;:modules:domain -->
<g id="edge25" class="edge">
<title>:modules:navigator&#45;notifications&#45;&gt;:modules:domain</title>
<path fill="none" stroke="black" d="M759.37,-216.7C736.52,-207.39 708.63,-194.67 685.49,-180 655.59,-161.05 625.27,-134.01 605.15,-114.72"/>
<polygon fill="black" stroke="black" points="607.57,-112.2 597.96,-107.74 602.69,-117.22 607.57,-112.2"/>
</g>
<!-- :modules:navigator&#45;notifications&#45;&gt;:modules:navigator&#45;domain -->
<g id="edge24" class="edge">
<title>:modules:navigator&#45;notifications&#45;&gt;:modules:navigator&#45;domain</title>
<path fill="none" stroke="red" stroke-width="2" d="M818.26,-216.05C825.64,-207.58 834.72,-197.17 842.87,-187.82"/>
<polygon fill="red" stroke="red" stroke-width="2" points="845.51,-190.11 849.44,-180.28 840.23,-185.51 845.51,-190.11"/>
</g>
</g>
</svg>
