<?xml version="1.0" encoding="UTF-8" standalone="no"?>
<!DOCTYPE svg PUBLIC "-//W3C//DTD SVG 1.1//EN"
 "http://www.w3.org/Graphics/SVG/1.1/DTD/svg11.dtd">
<!-- Generated by graphviz version 2.43.0 (0)
 -->
<!-- Title: G Pages: 1 -->
<svg width="892pt" height="476pt"
 viewBox="0.00 0.00 892.00 476.00" xmlns="http://www.w3.org/2000/svg" xmlns:xlink="http://www.w3.org/1999/xlink">
<g id="graph0" class="graph" transform="scale(1 1) rotate(0) translate(4 472)">
<title>G</title>
<polygon fill="white" stroke="transparent" points="-4,4 -4,-472 888,-472 888,4 -4,4"/>
<!-- :app -->
<g id="node1" class="node">
<title>:app</title>
<ellipse fill="none" stroke="black" cx="174" cy="-450" rx="30.59" ry="18"/>
<text text-anchor="middle" x="174" y="-446.3" font-family="Times,serif" font-size="14.00">:app</text>
</g>
<!-- :core:common -->
<g id="node2" class="node">
<title>:core:common</title>
<ellipse fill="none" stroke="black" cx="464" cy="-18" rx="75.29" ry="18"/>
<text text-anchor="middle" x="464" y="-14.3" font-family="Times,serif" font-size="14.00">:core:common</text>
</g>
<!-- :app&#45;&gt;:core:common -->
<g id="edge1" class="edge">
<title>:app&#45;&gt;:core:common</title>
<path fill="none" stroke="black" d="M147.19,-440.98C98.39,-424.53 0,-382.06 0,-307 0,-307 0,-307 0,-161 0,-81.36 253.11,-41.9 385.44,-26.71"/>
<polygon fill="black" stroke="black" points="385.99,-30.17 395.54,-25.57 385.21,-23.22 385.99,-30.17"/>
</g>
<!-- :core:designsystem -->
<g id="node3" class="node">
<title>:core:designsystem</title>
<ellipse fill="none" stroke="black" cx="303" cy="-234" rx="100.98" ry="18"/>
<text text-anchor="middle" x="303" y="-230.3" font-family="Times,serif" font-size="14.00">:core:designsystem</text>
</g>
<!-- :app&#45;&gt;:core:designsystem -->
<g id="edge2" class="edge">
<title>:app&#45;&gt;:core:designsystem</title>
<path fill="none" stroke="black" d="M183.7,-432.92C205.85,-396.16 260.35,-305.76 287.34,-260.99"/>
<polygon fill="black" stroke="black" points="290.49,-262.53 292.66,-252.16 284.5,-258.92 290.49,-262.53"/>
</g>
<!-- :core:database -->
<g id="node4" class="node">
<title>:core:database</title>
<ellipse fill="none" stroke="black" cx="107" cy="-162" rx="78.79" ry="18"/>
<text text-anchor="middle" x="107" y="-158.3" font-family="Times,serif" font-size="14.00">:core:database</text>
</g>
<!-- :app&#45;&gt;:core:database -->
<g id="edge3" class="edge">
<title>:app&#45;&gt;:core:database</title>
<path fill="none" stroke="black" d="M155.15,-435.53C143.38,-425.96 129.15,-412.01 122,-396 91.23,-327.1 97.28,-235.2 102.87,-190.18"/>
<polygon fill="black" stroke="black" points="106.37,-190.42 104.22,-180.04 99.43,-189.49 106.37,-190.42"/>
</g>
<!-- :core:datastore -->
<g id="node5" class="node">
<title>:core:datastore</title>
<ellipse fill="none" stroke="black" cx="285" cy="-162" rx="81.49" ry="18"/>
<text text-anchor="middle" x="285" y="-158.3" font-family="Times,serif" font-size="14.00">:core:datastore</text>
</g>
<!-- :app&#45;&gt;:core:datastore -->
<g id="edge4" class="edge">
<title>:app&#45;&gt;:core:datastore</title>
<path fill="none" stroke="black" d="M166.73,-432.3C150.17,-391.43 114.47,-284.76 160,-216 172.47,-197.17 193.12,-185.01 214.08,-177.16"/>
<polygon fill="black" stroke="black" points="215.38,-180.42 223.7,-173.85 213.1,-173.8 215.38,-180.42"/>
</g>
<!-- :core:domain -->
<g id="node6" class="node">
<title>:core:domain</title>
<ellipse fill="none" stroke="black" cx="415" cy="-90" rx="70.69" ry="18"/>
<text text-anchor="middle" x="415" y="-86.3" font-family="Times,serif" font-size="14.00">:core:domain</text>
</g>
<!-- :app&#45;&gt;:core:domain -->
<g id="edge5" class="edge">
<title>:app&#45;&gt;:core:domain</title>
<path fill="none" stroke="black" d="M172.85,-431.87C169.99,-383.57 164.7,-247.72 193,-216 247.89,-154.47 310.46,-231.32 375,-180 394.19,-164.74 404.47,-138.27 409.78,-118.16"/>
<polygon fill="black" stroke="black" points="413.21,-118.85 412.12,-108.31 406.4,-117.23 413.21,-118.85"/>
</g>
<!-- :core:navigator -->
<g id="node7" class="node">
<title>:core:navigator</title>
<ellipse fill="none" stroke="black" cx="601" cy="-306" rx="81.49" ry="18"/>
<text text-anchor="middle" x="601" y="-302.3" font-family="Times,serif" font-size="14.00">:core:navigator</text>
</g>
<!-- :app&#45;&gt;:core:navigator -->
<g id="edge6" class="edge">
<title>:app&#45;&gt;:core:navigator</title>
<path fill="none" stroke="black" d="M200.07,-440.33C268.81,-417.47 456.07,-355.2 548.27,-324.54"/>
<polygon fill="black" stroke="black" points="549.58,-327.79 557.96,-321.31 547.37,-321.15 549.58,-327.79"/>
</g>
<!-- :core:navigator&#45;quicktile -->
<g id="node8" class="node">
<title>:core:navigator&#45;quicktile</title>
<ellipse fill="none" stroke="black" cx="715" cy="-378" rx="124.28" ry="18"/>
<text text-anchor="middle" x="715" y="-374.3" font-family="Times,serif" font-size="14.00">:core:navigator&#45;quicktile</text>
</g>
<!-- :app&#45;&gt;:core:navigator&#45;quicktile -->
<g id="edge7" class="edge">
<title>:app&#45;&gt;:core:navigator&#45;quicktile</title>
<path fill="none" stroke="red" stroke-width="2" d="M203.47,-445.19C280.38,-435.24 489.91,-408.12 615.66,-391.85"/>
<polygon fill="red" stroke="red" stroke-width="2" points="616.22,-395.31 625.69,-390.56 615.32,-388.37 616.22,-395.31"/>
</g>
<!-- :core:database&#45;&gt;:core:common -->
<g id="edge8" class="edge">
<title>:core:database&#45;&gt;:core:common</title>
<path fill="none" stroke="black" d="M138.46,-145.44C176.8,-126.77 243.82,-95.1 303,-72 337.75,-58.44 377.57,-45.31 408.91,-35.51"/>
<polygon fill="black" stroke="black" points="410.26,-38.76 418.77,-32.45 408.19,-32.07 410.26,-38.76"/>
</g>
<!-- :core:database&#45;&gt;:core:domain -->
<g id="edge9" class="edge">
<title>:core:database&#45;&gt;:core:domain</title>
<path fill="none" stroke="black" d="M160.65,-148.81C214.63,-136.54 297.74,-117.65 354.15,-104.83"/>
<polygon fill="black" stroke="black" points="355.03,-108.22 364.01,-102.59 353.48,-101.39 355.03,-108.22"/>
</g>
<!-- :core:datastore&#45;&gt;:core:common -->
<g id="edge10" class="edge">
<title>:core:datastore&#45;&gt;:core:common</title>
<path fill="none" stroke="black" d="M290.63,-144.03C297.96,-124.28 312.57,-91.85 335,-72 354.36,-54.87 380.02,-42.8 403.35,-34.56"/>
<polygon fill="black" stroke="black" points="404.47,-37.88 412.84,-31.37 402.24,-31.24 404.47,-37.88"/>
</g>
<!-- :core:datastore&#45;&gt;:core:domain -->
<g id="edge11" class="edge">
<title>:core:datastore&#45;&gt;:core:domain</title>
<path fill="none" stroke="black" d="M314.5,-145.12C333.08,-135.11 357.24,-122.1 377.22,-111.34"/>
<polygon fill="black" stroke="black" points="378.92,-114.4 386.07,-106.58 375.6,-108.24 378.92,-114.4"/>
</g>
<!-- :core:domain&#45;&gt;:core:common -->
<g id="edge12" class="edge">
<title>:core:domain&#45;&gt;:core:common</title>
<path fill="none" stroke="red" stroke-width="2" d="M426.86,-72.05C432.7,-63.71 439.86,-53.49 446.32,-44.25"/>
<polygon fill="red" stroke="red" stroke-width="2" points="449.38,-45.99 452.25,-35.79 443.65,-41.97 449.38,-45.99"/>
</g>
<!-- :core:navigator&#45;&gt;:core:common -->
<g id="edge13" class="edge">
<title>:core:navigator&#45;&gt;:core:common</title>
<path fill="none" stroke="black" d="M673.54,-297.89C706.47,-291.06 743.46,-277.78 768,-252 801.6,-216.7 814.55,-184.2 787,-144 733.08,-65.32 621.97,-36.15 545.24,-25.35"/>
<polygon fill="black" stroke="black" points="545.5,-21.85 535.12,-24 544.57,-28.79 545.5,-21.85"/>
</g>
<!-- :core:navigator&#45;&gt;:core:designsystem -->
<g id="edge14" class="edge">
<title>:core:navigator&#45;&gt;:core:designsystem</title>
<path fill="none" stroke="black" d="M547.38,-292.4C498,-280.81 424.52,-263.54 371.03,-250.98"/>
<polygon fill="black" stroke="black" points="371.82,-247.57 361.28,-248.69 370.22,-254.39 371.82,-247.57"/>
</g>
<!-- :core:navigator&#45;&gt;:core:domain -->
<g id="edge15" class="edge">
<title>:core:navigator&#45;&gt;:core:domain</title>
<path fill="none" stroke="black" d="M533.41,-296.01C504.2,-288.76 471.98,-275.66 451,-252 417.93,-214.72 413.18,-153.74 413.54,-118.5"/>
<polygon fill="black" stroke="black" points="417.04,-118.53 413.78,-108.44 410.04,-118.35 417.04,-118.53"/>
</g>
<!-- :core:navigator&#45;domain -->
<g id="node9" class="node">
<title>:core:navigator&#45;domain</title>
<ellipse fill="none" stroke="black" cx="660" cy="-162" rx="118.08" ry="18"/>
<text text-anchor="middle" x="660" y="-158.3" font-family="Times,serif" font-size="14.00">:core:navigator&#45;domain</text>
</g>
<!-- :core:navigator&#45;&gt;:core:navigator&#45;domain -->
<g id="edge16" class="edge">
<title>:core:navigator&#45;&gt;:core:navigator&#45;domain</title>
<path fill="none" stroke="black" d="M673.03,-297.53C702.19,-290.56 733.14,-277.26 751,-252 760.24,-238.94 758.97,-229.87 751,-216 743,-202.09 729.79,-191.48 715.88,-183.56"/>
<polygon fill="black" stroke="black" points="717.17,-180.28 706.69,-178.73 713.91,-186.48 717.17,-180.28"/>
</g>
<!-- :core:navigator&#45;notifications -->
<g id="node10" class="node">
<title>:core:navigator&#45;notifications</title>
<ellipse fill="none" stroke="black" cx="601" cy="-234" rx="141.07" ry="18"/>
<text text-anchor="middle" x="601" y="-230.3" font-family="Times,serif" font-size="14.00">:core:navigator&#45;notifications</text>
</g>
<!-- :core:navigator&#45;&gt;:core:navigator&#45;notifications -->
<g id="edge17" class="edge">
<title>:core:navigator&#45;&gt;:core:navigator&#45;notifications</title>
<path fill="none" stroke="red" stroke-width="2" d="M601,-287.7C601,-279.98 601,-270.71 601,-262.11"/>
<polygon fill="red" stroke="red" stroke-width="2" points="604.5,-262.1 601,-252.1 597.5,-262.1 604.5,-262.1"/>
</g>
<!-- :core:navigator&#45;quicktile&#45;&gt;:core:common -->
<g id="edge18" class="edge">
<title>:core:navigator&#45;quicktile&#45;&gt;:core:common</title>
<path fill="none" stroke="black" d="M760.73,-361.2C810.78,-340.66 884,-299.57 884,-235 884,-235 884,-235 884,-161 884,-89.03 659.91,-46.44 539.1,-28.7"/>
<polygon fill="black" stroke="black" points="539.56,-25.23 529.16,-27.27 538.56,-32.16 539.56,-25.23"/>
</g>
<!-- :core:navigator&#45;quicktile&#45;&gt;:core:navigator -->
<g id="edge19" class="edge">
<title>:core:navigator&#45;quicktile&#45;&gt;:core:navigator</title>
<path fill="none" stroke="red" stroke-width="2" d="M687.98,-360.41C672.54,-350.93 652.99,-338.92 636.34,-328.7"/>
<polygon fill="red" stroke="red" stroke-width="2" points="637.78,-325.48 627.43,-323.23 634.12,-331.44 637.78,-325.48"/>
</g>
<!-- :core:navigator&#45;quicktile&#45;&gt;:core:navigator&#45;domain -->
<g id="edge20" class="edge">
<title>:core:navigator&#45;quicktile&#45;&gt;:core:navigator&#45;domain</title>
<path fill="none" stroke="black" d="M729.65,-359.88C754.05,-329.15 797.57,-263.45 768,-216 758.54,-200.81 743.31,-189.85 727.23,-181.99"/>
<polygon fill="black" stroke="black" points="728.27,-178.62 717.71,-177.72 725.4,-185.01 728.27,-178.62"/>
</g>
<!-- :core:navigator&#45;domain&#45;&gt;:core:common -->
<g id="edge22" class="edge">
<title>:core:navigator&#45;domain&#45;&gt;:core:common</title>
<path fill="none" stroke="black" d="M636.75,-144.15C601.49,-118.61 534.45,-70.04 495.06,-41.5"/>
<polygon fill="black" stroke="black" points="496.77,-38.42 486.62,-35.39 492.66,-44.09 496.77,-38.42"/>
</g>
<!-- :core:navigator&#45;domain&#45;&gt;:core:domain -->
<g id="edge21" class="edge">
<title>:core:navigator&#45;domain&#45;&gt;:core:domain</title>
<path fill="none" stroke="red" stroke-width="2" d="M606.84,-145.81C566.4,-134.26 510.94,-118.41 470.05,-106.73"/>
<polygon fill="red" stroke="red" stroke-width="2" points="470.82,-103.31 460.25,-103.93 468.9,-110.04 470.82,-103.31"/>
</g>
<!-- :core:navigator&#45;notifications&#45;&gt;:core:common -->
<g id="edge25" class="edge">
<title>:core:navigator&#45;notifications&#45;&gt;:core:common</title>
<path fill="none" stroke="black" d="M572.7,-216.36C559.08,-207.14 543.49,-194.58 533,-180 503.29,-138.69 516.39,-118.17 495,-72 490.79,-62.91 485.49,-53.35 480.47,-44.89"/>
<polygon fill="black" stroke="black" points="483.38,-42.94 475.2,-36.21 477.4,-46.58 483.38,-42.94"/>
</g>
<!-- :core:navigator&#45;notifications&#45;&gt;:core:domain -->
<g id="edge24" class="edge">
<title>:core:navigator&#45;notifications&#45;&gt;:core:domain</title>
<path fill="none" stroke="black" d="M562.81,-216.59C543.14,-207.26 519.29,-194.54 500,-180 475.07,-161.21 450.9,-134.87 434.75,-115.73"/>
<polygon fill="black" stroke="black" points="437.42,-113.46 428.34,-108 432.04,-117.94 437.42,-113.46"/>
</g>
<!-- :core:navigator&#45;notifications&#45;&gt;:core:navigator&#45;domain -->
<g id="edge23" class="edge">
<title>:core:navigator&#45;notifications&#45;&gt;:core:navigator&#45;domain</title>
<path fill="none" stroke="red" stroke-width="2" d="M615.28,-216.05C622.35,-207.67 631.03,-197.38 638.85,-188.1"/>
<polygon fill="red" stroke="red" stroke-width="2" points="641.67,-190.18 645.44,-180.28 636.32,-185.67 641.67,-190.18"/>
</g>
</g>
</svg>
